<?xml version="1.0" encoding="UTF-8"?>
<svg version="1.1" xmlns="http://www.w3.org/2000/svg" width="500" height="500">
<path d="M0 0 C11.44555559 -0.53426292 20.32563016 3.06073763 29.11328125 10.1484375 C30.03238281 10.86644531 30.95148438 11.58445313 31.8984375 12.32421875 C36.98008381 16.3713621 41.70494888 20.59318782 46.22265625 25.2578125 C48.08994883 27.12510508 50.03192403 28.82251055 52.05078125 30.5234375 C55.97811799 33.89956908 59.33618685 37.6519199 62.75390625 41.53515625 C65.88861201 45.00720617 69.20692517 48.26986205 72.55859375 51.53125 C74.53256425 53.55351336 76.36860202 55.58758101 78.203125 57.73046875 C82.58178434 62.77822128 87.296525 67.48188039 92.02856445 72.1940918 C93.54819793 73.7083633 95.06240642 75.2279118 96.57617188 76.74804688 C100.80614343 80.97978905 105.03970742 85.15867429 109.59375 89.046875 C116.23519809 94.73917899 121.56706967 102.04473987 122.359375 110.8984375 C122.85893523 123.00898852 117.67775599 129.19482716 110.11328125 138.1484375 C109.68031738 138.66100098 109.24735352 139.17356445 108.80126953 139.70166016 C106.93109907 141.91404052 105.05900647 144.12473887 103.18139648 146.33081055 C100.43603492 149.56134581 97.74623031 152.82487885 95.11328125 156.1484375 C91.56472979 160.62775656 87.88391249 164.98183786 84.1796875 169.33203125 C81.43553592 172.56268062 78.74580316 175.82541804 76.11328125 179.1484375 C73.02254412 183.04985978 69.83944999 186.85930945 66.61328125 190.6484375 C62.77655525 195.15805619 59.0186563 199.71532041 55.33984375 204.35546875 C51.89441118 208.67737101 48.40076603 212.96004541 44.90429688 217.24072266 C41.78762966 221.06200395 38.74280109 224.92538541 35.73828125 228.8359375 C31.64182999 233.98031815 26.99196139 238.45005793 20.203125 239.421875 C10.61869422 239.87413489 4.02696646 235.34564036 -2.88671875 229.0859375 C-12.554476 219.97847249 -22.65405756 210.0711467 -23.38671875 196.0859375 C-22.39192269 176.67234173 -0.80319328 158.15937727 11.734375 144.91894531 C18.78586107 137.4395423 25.27683121 129.62070369 31.11328125 121.1484375 C28.49066147 117.67361633 25.86798696 114.98919182 22.42578125 112.3359375 C14.22081258 105.74363199 6.68321063 98.45200534 -0.88671875 91.1484375 C-1.62857422 90.43526367 -2.37042969 89.72208984 -3.13476562 88.98730469 C-32.45264819 60.68082506 -32.45264819 60.68082506 -33.32421875 45.0859375 C-31.52123986 28.8591275 -22.01220856 14.3920923 -10.13671875 3.5234375 C-6.74806911 0.83108573 -4.26834873 0.33581212 0 0 Z " fill="#389ADE" transform="translate(353.88671875,129.8515625)"/>
<path d="M0 0 C8.33654544 6.36545681 14.11925109 14.81270793 19 24 C19.52851563 24.99 20.05703125 25.98 20.6015625 27 C24.65168166 35.50751287 25.74638184 43.8758103 23.13671875 53.02734375 C19.2947076 61.88894842 12.43760082 68.40480583 5.76318359 75.18359375 C3.13936158 77.88661726 0.63876243 80.69517504 -1.875 83.5 C-5.45640469 87.42274092 -9.11567942 91.02312012 -13.18359375 94.43359375 C-14.99932645 95.99941916 -16.64942704 97.6490212 -18.3125 99.375 C-22.05854874 103.1896263 -26.17224698 106.49297205 -30.33203125 109.84375 C-33.61466881 112.49677479 -36.81070592 115.23594513 -40 118 C-37.25520764 122.26332332 -34.29974804 126.20840864 -31 130.0625 C-30.52578613 130.61977783 -30.05157227 131.17705566 -29.56298828 131.7512207 C-23.48666604 138.83827565 -17.10071755 145.64864436 -10.69921875 152.44140625 C14.34752499 179.50287892 14.34752499 179.50287892 15.12109375 193.7265625 C14.43471497 206.61277054 5.59512953 215.62484809 -3 224.375 C-3.56887939 224.95797852 -4.13775879 225.54095703 -4.72387695 226.14160156 C-10.66670053 232.01753768 -17.07447302 237.02344788 -25.6875 237.375 C-32.94313505 237.28008617 -37.30753231 233.73802022 -42.4375 228.9375 C-46.1782407 225.02825747 -49.28143209 220.67290658 -52.4765625 216.31640625 C-55.65569011 212.06187319 -59.14596125 208.08312087 -62.62548828 204.07421875 C-66.17267153 199.98279463 -69.5847902 195.8084465 -72.94140625 191.55859375 C-75.4081162 188.4927588 -77.94872414 185.49550413 -80.5 182.5 C-84.3908124 177.93079634 -88.17929113 173.29827185 -91.90625 168.59375 C-94.38811458 165.51920134 -96.93862277 162.50833189 -99.5 159.5 C-103.33334727 154.9943526 -107.09341016 150.44590538 -110.7578125 145.80078125 C-112.56248126 143.54651731 -114.39184365 141.32194899 -116.2421875 139.10546875 C-116.81984863 138.40848877 -117.39750977 137.71150879 -117.99267578 136.9934082 C-119.13335717 135.61834674 -120.2798511 134.2480787 -121.43310547 132.88354492 C-127.63498982 125.37466739 -131.79145606 117.97234641 -131 108 C-128.9590841 98.04661014 -122.94984201 91.90034171 -116 85 C-115.01386719 83.97712891 -115.01386719 83.97712891 -114.0078125 82.93359375 C-111.14893332 79.98907994 -108.16700743 77.24585332 -105.0625 74.5625 C-98.82397779 69.16702134 -93.21762031 63.31709335 -87.84765625 57.06640625 C-85.16489494 54.06602415 -82.2941847 51.27047769 -79.40625 48.46875 C-77.46084974 46.47281986 -75.64364864 44.45045614 -73.828125 42.33984375 C-63.36504706 30.29102572 -51.78654795 18.57963239 -39 9 C-38.11570312 8.27554688 -37.23140625 7.55109375 -36.3203125 6.8046875 C-25.66279253 -1.61867814 -12.97787117 -4.64709797 0 0 Z " fill="#399BDE" transform="translate(152,132)"/>
<path d="M0 0 C4.62802643 2.44023212 6.64384511 4.7535982 8.515625 9.609375 C14.01005772 28.70020054 2.17326374 49.66448163 -4.81256104 66.95446777 C-6.9695151 72.29848956 -9.10784397 77.65003401 -11.25 83 C-11.49609009 83.61451019 -11.74218018 84.22902039 -11.99572754 84.8621521 C-36.86282958 146.98092473 -60.11048357 209.73960018 -82.4375 272.8125 C-82.79815552 273.83097015 -83.15881104 274.84944031 -83.53039551 275.89877319 C-88.25776092 289.24809893 -88.25776092 289.24809893 -92.92944336 302.61697388 C-93.61883496 304.60179915 -94.31188289 306.58530419 -95.00634766 308.56835938 C-95.79395655 310.82079094 -96.57447858 313.07572369 -97.34521484 315.33398438 C-101.0145072 325.78622084 -105.57137492 335.90024777 -114.5625 342.8125 C-118.88009114 344.8470725 -122.83158772 345.73996302 -127.5625 344.8125 C-135.5341057 341.39808847 -139.94833997 334.86098907 -144.5625 327.8125 C-145.5525 326.3275 -145.5525 326.3275 -146.5625 324.8125 C-147.63672766 316.87930026 -145.78332076 309.86508686 -143.265625 302.41015625 C-142.92096695 301.34721848 -142.5763089 300.2842807 -142.22120667 299.18913269 C-141.10042661 295.74580809 -139.95691299 292.31053442 -138.8125 288.875 C-138.025625 286.47471351 -137.24007293 284.07399296 -136.45581055 281.67285156 C-134.52320462 275.76924102 -132.57198799 269.87200606 -130.61297607 263.97711182 C-129.40614006 260.34145784 -128.20801311 256.7029929 -127.01130676 253.06399536 C-124.3885773 245.09166289 -121.72481195 237.13374731 -119.03710938 229.18310547 C-118.02988181 226.20231304 -117.02909402 223.21946224 -116.03320312 220.23486328 C-105.55630145 188.84395867 -94.13322818 157.81461583 -82.5625 126.8125 C-82.20998169 125.86707336 -81.85746338 124.92164673 -81.4942627 123.9475708 C-74.15543362 104.27090244 -66.59284372 84.69128347 -58.83251953 65.17700195 C-55.29100614 56.2617732 -51.86625424 47.31898211 -48.5625 38.3125 C-37.31696508 8.01950401 -37.31696508 8.01950401 -24.1875 1.25 C-16.48617959 -1.80397189 -8.0254897 -2.68021071 0 0 Z " fill="#389BDF" transform="translate(315.5625,80.1875)"/>
<path d="M0 0 C3.4375 1.8125 3.4375 1.8125 6 4 C6.598125 4.495 7.19625 4.99 7.8125 5.5 C10.42234524 8.79664661 10.34937775 12.82110156 10.2734375 16.921875 C9.46238809 23.08585055 5.1075815 27.12463731 0.8359375 31.20703125 C-0.94281182 32.94415027 -2.56736403 34.7401101 -4.1875 36.625 C-7.7987292 40.80982489 -11.53511083 44.86937794 -15.29980469 48.91577148 C-17.9136348 51.72755719 -20.50317009 54.55460642 -23.04296875 57.43359375 C-23.52991211 57.98047852 -24.01685547 58.52736328 -24.51855469 59.09082031 C-25.86061657 60.60098629 -27.19424489 62.11863483 -28.52734375 63.63671875 C-32.20689535 67.15350978 -34.92155902 67.89729134 -39.9375 68.375 C-45.38008052 68.22125479 -48.46779076 65.44938712 -52.3125 61.8125 C-54.58207954 58.02986744 -55.39817339 54.40886537 -55 50 C-53.10094394 45.29309868 -50.47217303 42.03895003 -47 38.375 C-46.01285072 37.32307628 -45.02587656 36.2709882 -44.0390625 35.21875 C-43.53536133 34.68636719 -43.03166016 34.15398437 -42.51269531 33.60546875 C-40.1073228 31.05257501 -37.74171393 28.46368497 -35.375 25.875 C-34.69304565 25.13092896 -34.69304565 25.13092896 -33.99731445 24.37182617 C-25.70910756 15.36099965 -25.70910756 15.36099965 -17.75 6.0625 C-12.61496957 0.1460519 -7.72252482 -1.13857738 0 0 Z " fill="#FCFDFE" transform="translate(137,147)"/>
<path d="M0 0 C1.45933177 0.98723919 2.90687438 1.9920723 4.34375 3.01171875 C5.118396 3.54571289 5.89304199 4.07970703 6.69116211 4.62988281 C9.09154629 6.2980582 11.47085266 7.99220804 13.84375 9.69921875 C14.95387451 10.49755127 14.95387451 10.49755127 16.08642578 11.31201172 C20.15998671 14.26417336 24.17320282 17.28224048 28.13720703 20.37988281 C29.68298136 21.5749278 31.25986859 22.72945887 32.83984375 23.87890625 C38.42933562 28.2214444 38.42933562 28.2214444 39.5546875 32.234375 C39.84125774 36.86726053 39.35052919 39.04574033 36.46875 42.76171875 C32.6376128 45.58946287 30.62857779 46.15929834 25.84375 45.69921875 C21.75187557 43.22533478 18.04170647 40.33584692 14.28564453 37.38452148 C6.27110663 31.09198269 -1.98728057 25.39202486 -10.64306641 20.01391602 C-11.44921387 19.50658936 -12.25536133 18.9992627 -13.0859375 18.4765625 C-13.79991699 18.03562256 -14.51389648 17.59468262 -15.24951172 17.14038086 C-17.4049966 15.51120964 -18.74548671 14.00317597 -20.15625 11.69921875 C-20.56726954 7.38351355 -20.61556262 4.81123878 -18.96875 0.82421875 C-13.79512889 -5.24140599 -6.17876761 -3.81952258 0 0 Z " fill="#DF4AB1" transform="translate(208.15625,47.30078125)"/>
<path d="M0 0 C0.91188583 0.45047195 1.82377167 0.90094391 2.76329041 1.36506653 C4.68580965 2.31841101 6.60622918 3.27600007 8.5246582 4.23754883 C11.45076171 5.69999315 14.38778758 7.1385951 17.32617188 8.57617188 C19.19732959 9.50767971 21.06779633 10.44057708 22.9375 11.375 C23.81156998 11.8002446 24.68563995 12.2254892 25.5861969 12.66362 C30.76757232 15.29337352 34.07909499 17.71919047 37.40234375 22.51953125 C38.29351932 25.58052559 37.87253397 27.22819974 37.40234375 30.51953125 C35.60870464 33.32956585 34.3835344 35.02893593 31.40234375 36.51953125 C25.42821023 36.93545194 22.01700095 36.29533005 16.65234375 33.39453125 C15.27844782 32.6645848 13.90334015 31.93691667 12.52734375 31.2109375 C11.74359375 30.79344238 10.95984375 30.37594727 10.15234375 29.94580078 C6.88898363 28.25328038 3.58628496 26.64758831 0.27734375 25.046875 C-1.62853148 24.11859212 -3.53387706 23.18923018 -5.43908691 22.25958252 C-6.70483426 21.64443821 -7.97232307 21.03286356 -9.24157715 20.42498779 C-11.0481456 19.55788476 -12.84649101 18.67371415 -14.64453125 17.7890625 C-15.69479492 17.27964111 -16.74505859 16.77021973 -17.82714844 16.24536133 C-20.86921355 14.35037029 -22.58552507 12.46686162 -24.59765625 9.51953125 C-25.361106 6.04518788 -24.87459421 2.65805399 -24.03515625 -0.79296875 C-16.9561271 -9.10313341 -7.80597303 -3.89710441 0 0 Z " fill="#99C93B" transform="translate(274.59765625,387.48046875)"/>
<path d="M0 0 C2.92152702 1.8344472 5.4326609 3.86532181 7 7 C7.10492956 8.41790353 7.15520792 9.84008681 7.17578125 11.26171875 C7.4816352 23.7459093 8.93848036 34.38551714 13.1328125 46.1875 C14.28084299 49.91084213 14.02264239 52.25031125 13 56 C10.94258871 59.02182284 9.50050175 60.69011377 5.84375 61.4453125 C1.98509824 61.63824509 -0.19083333 61.47986889 -3.58203125 59.46875 C-6.7331112 56.25149228 -7.82863376 53.16900021 -9.1875 48.9375 C-9.44160645 48.17018555 -9.69571289 47.40287109 -9.95751953 46.61230469 C-13.06304117 37.0023843 -14.17698701 28.21471377 -14.3125 18.125 C-14.33038574 17.2081543 -14.34827148 16.29130859 -14.36669922 15.34667969 C-14.36035004 10.42152836 -14.25651104 6.96887283 -11 3 C-7.34698051 0.13682256 -4.60791752 -0.75231307 0 0 Z " fill="#DE4AB1" transform="translate(259,8)"/>
<path d="M0 0 C0.90661377 0.11762695 1.81322754 0.23525391 2.74731445 0.35644531 C16.69207965 2.35898069 16.69207965 2.35898069 22.0625 6.8125 C24.07756673 10.84263346 24.41998446 14.27157459 23.5 18.6875 C21.14403422 22.01356934 19.66576201 23.39239102 15.70703125 24.39453125 C12.18326371 24.7164345 9.73694151 24.2382702 6.3125 23.375 C-2.49521484 21.43730273 -11.31601713 20.92532773 -20.30737305 20.42260742 C-22.00180542 20.3197644 -22.00180542 20.3197644 -23.73046875 20.21484375 C-24.74520264 20.16062256 -25.75993652 20.10640137 -26.80541992 20.05053711 C-30.71747644 19.52347106 -32.78225356 18.58468306 -35.25 15.5 C-36.86220775 11.87253256 -37.05263322 9.62501167 -36.5 5.6875 C-29.72889527 -5.90898972 -11.31633062 -1.50692687 0 0 Z " fill="#DF4AB1" transform="translate(202.5,91.3125)"/>
<path d="M0 0 C3.96795996 1.5223107 5.20560537 3.5926458 6.98242188 7.4453125 C9.07238205 12.69227585 10.65910626 18.08506907 12.25 23.5 C12.61351562 24.68464844 12.97703125 25.86929687 13.3515625 27.08984375 C15.16864901 33.21738737 16.67370321 38.5998195 16 45 C14.20636089 47.8100346 12.98119065 49.50940468 10 51 C8.01171875 51.2734375 8.01171875 51.2734375 5.6875 51.375 C4.92824219 51.42398438 4.16898438 51.47296875 3.38671875 51.5234375 C-0.25735344 50.72424655 -1.67445514 48.85215584 -4 46 C-5.40625 42.828125 -5.40625 42.828125 -6.5 39.25 C-6.69940186 38.60675781 -6.89880371 37.96351563 -7.10424805 37.30078125 C-7.52766766 35.92470878 -7.94373995 34.54635741 -8.35302734 33.16601562 C-9.02062585 30.93094622 -9.72077173 28.70790333 -10.42578125 26.484375 C-10.88935414 24.98999629 -11.35162422 23.49521272 -11.8125 22 C-12.03164062 21.30680664 -12.25078125 20.61361328 -12.4765625 19.89941406 C-13.93137056 15.03519292 -15.44458033 9.76786002 -12.9765625 5.0390625 C-8.47834631 0.33283632 -6.53747887 -0.33814546 0 0 Z " fill="#99C93B" transform="translate(216,437)"/>
<path d="M0 0 C6.48522192 5.7002323 11.5497594 13.14130174 16.73828125 20.01953125 C18.18327968 21.92373471 19.67728271 23.79233774 21.23046875 25.609375 C23.90538941 29.2231751 24.35079757 32.56435966 24 37 C21.20481928 42.39759036 21.20481928 42.39759036 18 44 C16.01171875 44.23828125 16.01171875 44.23828125 13.6875 44.3125 C12.54861328 44.36857422 12.54861328 44.36857422 11.38671875 44.42578125 C5.08345394 43.30130357 1.54937649 37.0723788 -2.03686523 32.28051758 C-2.47200439 31.69939209 -2.90714355 31.1182666 -3.35546875 30.51953125 C-4.00974854 29.64095459 -4.00974854 29.64095459 -4.67724609 28.74462891 C-5.95782361 27.055628 -7.27584127 25.40589714 -8.61328125 23.76171875 C-16.58264683 13.75870326 -16.58264683 13.75870326 -16 7 C-14.31672123 3.50395947 -12.98214784 1.61052434 -9.6875 -0.4375 C-5.77338909 -1.25673252 -3.87098139 -1.29032713 0 0 Z " fill="#99C93B" transform="translate(248,415)"/>
<path d="M0 0 C3.07139815 1.02583882 4.49440125 2.30630282 6.75341797 4.61352539 C7.51783203 5.38631836 8.28224609 6.15911133 9.06982422 6.95532227 C9.85486328 7.76936523 10.63990234 8.5834082 11.44873047 9.42211914 C12.22603516 10.2090918 13.00333984 10.99606445 13.80419922 11.80688477 C18.01864716 16.10278842 22.07926186 20.49715519 26.01025391 25.05322266 C29.01088647 28.52006843 32.13946641 31.87052235 35.24169922 35.24633789 C41.50359087 42.26343256 41.50359087 42.26343256 41.94873047 46.04711914 C41.57373047 48.85961914 41.57373047 48.85961914 39.57373047 50.85961914 C37.31591797 51.35961914 37.31591797 51.35961914 34.57373047 50.85961914 C32.39123292 48.90904912 30.58356941 47.06590348 28.69873047 44.85961914 C27.96203125 44.03010742 27.96203125 44.03010742 27.21044922 43.18383789 C25.6504217 41.4212094 24.11073491 39.6423464 22.57373047 37.85961914 C17.84762817 32.40013244 13.0217726 27.05632681 8.07373047 21.79711914 C7.44853516 21.12874023 6.82333984 20.46036133 6.17919922 19.77172852 C2.50578387 15.8587426 -1.23422111 12.06202586 -5.14648438 8.38647461 C-6.42626953 6.85961914 -6.42626953 6.85961914 -6.55126953 4.04711914 C-4.97431922 0.98082687 -3.4974413 -0.20235749 0 0 Z " fill="#232225" transform="translate(366.42626953125,145.140380859375)"/>
<path d="M0 0 C3.72362493 0.47658836 4.85646764 1.52283542 7.19506836 4.37841797 C7.63085205 4.94834473 8.06663574 5.51827148 8.515625 6.10546875 C8.98814697 6.69344238 9.46066895 7.28141602 9.94750977 7.88720703 C11.40760428 9.71555439 12.83939557 11.56312637 14.265625 13.41796875 C15.10282423 14.49482304 15.94006205 15.57164733 16.77734375 16.6484375 C17.99186612 18.22281835 19.20638621 19.79728523 20.4050293 21.38378906 C22.71176864 24.43497818 25.07610865 27.41929058 27.5234375 30.359375 C28.07265869 31.02469238 28.62187988 31.69000977 29.18774414 32.37548828 C30.25554549 33.66435105 31.33245007 34.94574337 32.41967773 36.21826172 C35.45108944 39.89650171 36.95733882 42.49290901 37.265625 47.41796875 C35.515625 48.98046875 35.515625 48.98046875 33.265625 50.41796875 C28.48351537 49.97879542 26.46807158 46.63586752 23.5234375 43.19140625 C20.70551412 39.72994328 17.97089223 36.2103662 15.27246094 32.6550293 C11.40592097 27.56231543 7.41107355 22.57862166 3.37597656 17.61865234 C-4.80580909 7.48948016 -4.80580909 7.48948016 -4.546875 3.60546875 C-3.39569293 0.50613241 -3.36657006 0.51460428 0 0 Z " fill="#232225" transform="translate(87.734375,301.58203125)"/>
</svg>
